<svg id="svg" version="1.1" xmlns="http://www.w3.org/2000/svg" xmlns:xlink="http://www.w3.org/1999/xlink" width="400" height="376.47058823529414" viewBox="0, 0, 400,376.47058823529414"><g id="svgg"><path id="path0" d="M0.000 188.324 C 0.000 376.397,0.001 376.648,0.753 376.648 C 1.506 376.648,1.507 376.397,1.507 188.324 C 1.507 0.251,1.506 0.000,0.753 0.000 C 0.001 0.000,0.000 0.251,0.000 188.324 M398.493 67.378 C 398.493 146.379,399.070 138.232,393.785 133.858 C 392.750 133.001,391.351 132.020,390.678 131.677 C 390.005 131.334,389.454 130.902,389.454 130.716 C 389.454 130.531,388.859 130.182,388.132 129.942 C 387.405 129.702,386.600 129.306,386.343 129.061 C 385.835 128.578,382.311 126.850,378.719 125.323 C 375.377 123.903,368.748 122.011,364.595 121.292 C 355.515 119.722,357.416 119.767,304.332 119.867 L 253.672 119.962 253.672 226.742 L 253.672 333.522 302.072 333.629 C 350.701 333.737,362.208 333.522,365.913 332.440 C 366.949 332.138,368.559 331.781,369.492 331.648 C 371.528 331.356,380.143 328.961,381.733 328.245 C 383.421 327.484,389.776 324.390,391.727 323.380 C 392.666 322.893,393.662 322.222,393.939 321.888 C 394.216 321.554,394.650 321.281,394.903 321.281 C 395.156 321.281,395.670 320.942,396.045 320.527 C 398.423 317.900,398.493 318.727,398.493 349.177 C 398.493 376.397,398.500 376.648,399.247 376.648 C 399.999 376.648,400.000 376.397,400.000 188.324 C 400.000 0.251,399.999 0.000,399.247 0.000 C 398.496 0.000,398.493 0.251,398.493 67.378 M345.100 154.151 C 347.532 154.488,350.307 155.111,351.268 155.536 C 352.229 155.961,353.233 156.309,353.501 156.309 C 354.032 156.309,358.791 158.750,359.699 159.489 C 370.386 168.182,372.844 184.597,365.254 196.602 C 363.381 199.564,357.414 204.242,354.856 204.754 C 354.205 204.884,353.672 205.126,353.672 205.291 C 353.672 205.659,351.791 206.262,349.568 206.608 C 348.656 206.749,347.301 207.142,346.554 207.481 C 344.522 208.405,298.706 208.635,297.322 207.729 L 296.422 207.139 296.422 181.517 C 296.422 154.700,296.451 154.191,298.015 153.542 C 299.291 153.012,340.748 153.548,345.100 154.151 M397.805 213.429 C 398.760 214.294,398.858 230.218,397.919 232.034 C 397.329 233.175,396.827 233.425,396.427 232.777 C 396.119 232.279,392.290 229.755,391.842 229.755 C 391.645 229.755,390.932 229.348,390.258 228.851 C 389.585 228.354,388.467 227.841,387.775 227.711 C 387.083 227.582,386.316 227.234,386.071 226.939 C 385.826 226.644,384.835 226.287,383.868 226.146 C 378.413 225.352,377.081 222.523,381.657 221.454 C 382.734 221.202,383.870 220.792,384.181 220.541 C 384.492 220.291,385.339 219.853,386.064 219.567 C 386.789 219.282,387.926 218.703,388.591 218.281 C 389.256 217.859,390.612 217.011,391.604 216.395 C 392.597 215.780,394.142 214.721,395.038 214.041 C 396.930 212.607,396.903 212.613,397.805 213.429 M338.606 241.149 C 348.724 241.232,350.238 241.322,351.300 241.902 C 351.963 242.265,352.810 242.562,353.183 242.563 C 354.332 242.567,356.632 243.315,357.181 243.864 C 357.468 244.150,358.379 244.567,359.206 244.790 C 360.032 245.012,361.016 245.534,361.392 245.949 C 361.768 246.365,362.240 246.704,362.441 246.704 C 364.675 246.704,373.258 257.699,373.258 260.560 C 373.258 260.851,373.615 262.265,374.052 263.702 C 375.080 267.087,374.984 276.577,373.901 278.607 C 373.547 279.270,373.258 280.242,373.258 280.767 C 373.258 283.596,368.276 290.454,364.218 293.212 C 355.848 298.899,351.776 299.508,320.852 299.699 L 298.767 299.835 297.594 298.848 L 296.422 297.861 296.422 270.081 C 296.422 244.094,296.464 242.264,297.081 241.727 C 298.181 240.769,295.845 240.801,338.606 241.149 " stroke="none" fill="#fbfbfb" fill-rule="evenodd"></path><path id="path1" d="M105.609 163.457 C 104.400 163.946,104.331 164.938,104.331 181.941 C 104.331 198.735,104.344 198.849,106.147 198.881 C 106.495 198.887,122.671 198.882,142.094 198.870 L 177.407 198.848 177.855 199.830 C 178.143 200.463,178.175 200.990,177.946 201.314 C 177.750 201.590,176.827 202.816,175.895 204.038 C 174.962 205.260,173.861 206.736,173.446 207.319 C 173.032 207.901,171.913 209.331,170.960 210.497 C 170.007 211.664,169.038 212.978,168.806 213.418 C 168.575 213.859,167.151 215.753,165.643 217.629 C 164.134 219.504,161.968 222.341,160.829 223.934 C 159.689 225.526,157.955 227.869,156.975 229.140 C 155.028 231.663,149.350 239.363,147.955 241.370 C 147.474 242.062,146.149 243.793,145.009 245.216 C 143.870 246.640,142.656 248.193,142.311 248.667 C 141.966 249.141,140.186 251.521,138.356 253.956 C 136.526 256.391,134.181 259.583,133.145 261.049 C 132.109 262.514,130.414 264.797,129.379 266.120 C 128.343 267.444,126.987 269.215,126.365 270.056 C 125.744 270.898,124.388 272.665,123.352 273.985 C 122.316 275.304,121.130 276.848,120.716 277.417 C 120.301 277.986,119.200 279.469,118.267 280.711 C 117.335 281.954,116.321 283.327,116.014 283.764 C 115.707 284.200,114.686 285.574,113.746 286.817 C 112.806 288.060,111.750 289.501,111.401 290.019 C 110.825 290.871,107.066 295.860,105.112 298.365 C 104.046 299.731,103.870 332.818,104.923 333.871 C 105.949 334.897,230.322 334.762,230.872 333.735 C 231.297 332.940,231.440 301.926,231.027 299.864 L 230.793 298.693 193.564 298.593 C 150.614 298.478,153.622 298.759,156.901 295.169 C 157.922 294.051,159.181 292.515,159.699 291.756 C 160.217 290.997,161.563 289.152,162.692 287.655 C 164.576 285.156,166.414 282.693,167.816 280.791 C 168.122 280.377,169.192 279.021,170.194 277.778 C 171.196 276.535,175.248 271.196,179.197 265.913 C 183.147 260.631,187.164 255.292,188.124 254.049 C 189.084 252.806,190.819 250.518,191.981 248.964 C 193.142 247.411,194.532 245.597,195.069 244.934 C 195.606 244.271,196.335 243.339,196.690 242.862 C 197.044 242.386,197.968 241.149,198.743 240.113 C 202.948 234.495,206.013 230.372,207.984 227.684 C 209.199 226.026,210.613 224.162,211.127 223.540 C 211.640 222.919,212.409 221.987,212.834 221.469 C 213.771 220.329,228.392 200.947,229.300 199.640 C 230.221 198.317,230.295 164.037,229.379 163.457 C 228.664 163.005,106.728 163.005,105.609 163.457 " stroke="none" fill="#13bb54" fill-rule="evenodd"></path><path id="path2" d="M2.447 188.324 C 2.447 292.006,2.490 334.421,2.542 282.580 C 2.595 230.739,2.595 145.909,2.542 94.068 C 2.490 42.227,2.447 84.642,2.447 188.324 M4.520 188.324 L 4.520 376.648 200.942 376.648 L 397.363 376.648 397.439 350.188 C 397.519 321.837,397.518 321.687,397.272 321.440 C 397.008 321.177,394.907 322.340,394.164 323.161 C 393.788 323.577,393.311 323.917,393.103 323.917 C 392.896 323.917,392.171 324.341,391.492 324.859 C 390.813 325.377,390.110 325.800,389.929 325.800 C 389.748 325.800,389.026 326.224,388.324 326.742 C 387.622 327.260,386.765 327.684,386.420 327.684 C 386.075 327.684,385.168 328.107,384.405 328.625 C 383.642 329.143,382.690 329.567,382.289 329.567 C 381.889 329.567,380.667 329.973,379.575 330.468 C 375.821 332.173,371.727 333.117,360.452 334.878 C 354.864 335.750,253.841 335.837,253.207 334.970 C 252.510 334.018,252.505 119.473,253.202 118.521 C 253.642 117.919,256.954 117.884,304.896 117.978 L 356.121 118.079 361.394 118.963 C 364.294 119.449,367.853 120.255,369.303 120.754 C 370.753 121.253,372.368 121.660,372.892 121.659 C 373.415 121.658,374.203 121.909,374.643 122.217 C 375.083 122.525,376.379 123.021,377.524 123.319 C 378.669 123.617,379.957 124.213,380.386 124.643 C 380.816 125.072,381.558 125.424,382.036 125.424 C 382.514 125.424,383.479 125.847,384.181 126.365 C 384.883 126.883,385.665 127.307,385.920 127.307 C 386.175 127.307,386.886 127.731,387.502 128.249 C 388.117 128.766,388.800 129.190,389.018 129.190 C 389.236 129.190,389.872 129.614,390.431 130.132 C 390.990 130.650,391.662 131.073,391.924 131.073 C 392.187 131.073,393.415 131.921,394.655 132.957 C 395.895 133.992,397.011 134.840,397.136 134.840 C 397.261 134.840,397.363 104.501,397.363 67.420 L 397.363 0.000 200.942 0.000 L 4.520 0.000 4.520 188.324 M330.067 116.667 C 316.359 116.721,293.817 116.721,279.973 116.667 C 266.129 116.612,277.345 116.567,304.896 116.567 C 332.448 116.567,343.775 116.612,330.067 116.667 M366.835 117.940 C 368.264 118.438,367.750 119.022,365.913 118.988 C 363.933 118.952,363.077 118.430,364.218 117.954 C 365.444 117.444,365.411 117.444,366.835 117.940 M252.301 226.554 C 252.301 285.386,252.173 333.847,252.018 334.245 C 251.749 334.932,251.701 334.922,251.102 334.067 C 250.126 332.673,250.126 120.434,251.102 119.040 C 251.701 118.185,251.749 118.176,252.018 118.862 C 252.173 119.260,252.301 167.721,252.301 226.554 M374.182 119.834 C 375.652 120.504,375.330 120.904,373.321 120.904 C 371.328 120.904,370.946 120.724,371.253 119.926 C 371.499 119.284,372.880 119.241,374.182 119.834 M379.021 121.940 L 380.226 122.599 378.586 122.717 C 376.721 122.850,376.536 122.763,376.868 121.899 C 377.168 121.115,377.525 121.122,379.021 121.940 M384.167 124.143 C 384.643 124.598,384.455 124.670,382.790 124.670 C 381.031 124.670,380.879 124.603,381.063 123.898 C 381.294 123.018,383.143 123.164,384.167 124.143 M387.955 125.998 C 388.217 126.314,388.334 126.669,388.215 126.788 C 387.918 127.085,384.934 126.556,384.934 126.207 C 384.934 125.273,387.222 125.114,387.955 125.998 M390.338 127.620 C 391.060 128.418,390.816 128.814,389.602 128.814 C 388.597 128.814,388.230 128.365,388.551 127.529 C 388.856 126.735,389.570 126.771,390.338 127.620 M394.258 130.226 C 394.360 130.534,394.012 130.697,393.252 130.697 C 392.133 130.697,391.798 130.362,392.357 129.802 C 392.762 129.397,394.082 129.692,394.258 130.226 M396.987 131.950 C 396.987 132.709,396.836 132.804,395.857 132.660 C 394.160 132.411,394.372 131.073,396.108 131.073 C 396.777 131.073,396.987 131.283,396.987 131.950 M298.270 155.409 C 298.064 155.658,297.962 166.276,298.020 181.586 L 298.117 207.345 320.376 207.345 C 338.238 207.345,342.752 207.247,343.232 206.848 C 343.561 206.575,345.543 206.129,347.636 205.857 C 349.887 205.564,351.706 205.127,352.087 204.788 C 352.441 204.472,353.493 204.016,354.426 203.774 C 355.358 203.533,356.290 203.121,356.497 202.859 C 356.704 202.597,357.298 202.158,357.815 201.884 C 359.784 200.840,363.276 197.269,364.407 195.142 C 366.043 192.065,366.440 191.026,367.198 187.839 C 369.291 179.039,367.077 168.982,361.812 163.371 C 360.694 162.180,359.618 161.205,359.421 161.205 C 359.223 161.205,358.745 160.855,358.357 160.426 C 357.406 159.375,352.731 157.062,351.557 157.062 C 351.037 157.062,349.732 156.646,348.656 156.137 L 346.699 155.211 322.658 155.101 C 305.368 155.022,298.520 155.108,298.270 155.409 M346.868 155.909 C 347.323 156.197,347.329 156.349,346.903 156.861 C 346.447 157.411,344.190 157.466,323.688 157.421 C 311.197 157.394,300.800 157.482,300.583 157.616 C 300.315 157.782,300.188 165.438,300.188 181.542 L 300.188 205.224 319.492 205.343 C 338.872 205.462,340.490 205.574,340.490 206.793 C 340.490 207.022,332.762 207.156,319.586 207.156 L 298.682 207.156 298.682 181.356 L 298.682 155.556 322.505 155.561 C 336.127 155.565,346.559 155.714,346.868 155.909 M352.439 157.674 C 353.557 157.974,352.908 159.322,351.646 159.322 C 350.293 159.322,349.173 157.932,350.346 157.709 C 350.829 157.617,351.309 157.521,351.412 157.495 C 351.516 157.470,351.978 157.550,352.439 157.674 M356.425 159.535 C 357.304 159.872,356.744 161.205,355.722 161.205 C 354.724 161.205,354.262 160.669,354.569 159.869 C 354.788 159.298,355.482 159.173,356.425 159.535 M229.379 163.457 C 230.295 164.037,230.221 198.317,229.300 199.640 C 228.392 200.947,213.771 220.329,212.834 221.469 C 212.409 221.987,211.640 222.919,211.127 223.540 C 210.613 224.162,209.199 226.026,207.984 227.684 C 206.013 230.372,202.948 234.495,198.743 240.113 C 197.968 241.149,197.044 242.386,196.690 242.862 C 196.335 243.339,195.606 244.271,195.069 244.934 C 194.532 245.597,193.142 247.411,191.981 248.964 C 190.819 250.518,189.084 252.806,188.124 254.049 C 187.164 255.292,183.147 260.631,179.197 265.913 C 175.248 271.196,171.196 276.535,170.194 277.778 C 169.192 279.021,168.122 280.377,167.816 280.791 C 166.414 282.693,164.576 285.156,162.692 287.655 C 161.563 289.152,160.217 290.997,159.699 291.756 C 159.181 292.515,157.922 294.051,156.901 295.169 C 153.622 298.759,150.614 298.478,193.564 298.593 L 230.793 298.693 231.027 299.864 C 231.440 301.926,231.297 332.940,230.872 333.735 C 230.322 334.762,105.949 334.897,104.923 333.871 C 103.870 332.818,104.046 299.731,105.112 298.365 C 107.066 295.860,110.825 290.871,111.401 290.019 C 111.750 289.501,112.806 288.060,113.746 286.817 C 114.686 285.574,115.707 284.200,116.014 283.764 C 116.321 283.327,117.335 281.954,118.267 280.711 C 119.200 279.469,120.301 277.986,120.716 277.417 C 121.130 276.848,122.316 275.304,123.352 273.985 C 124.388 272.665,125.744 270.898,126.365 270.056 C 126.987 269.215,128.343 267.444,129.379 266.120 C 130.414 264.797,132.109 262.514,133.145 261.049 C 134.181 259.583,136.526 256.391,138.356 253.956 C 140.186 251.521,141.966 249.141,142.311 248.667 C 142.656 248.193,143.870 246.640,145.009 245.216 C 146.149 243.793,147.474 242.062,147.955 241.370 C 149.350 239.363,155.028 231.663,156.975 229.140 C 157.955 227.869,159.689 225.526,160.829 223.934 C 161.968 222.341,164.134 219.504,165.643 217.629 C 167.151 215.753,168.575 213.859,168.806 213.418 C 169.038 212.978,170.007 211.664,170.960 210.497 C 171.913 209.331,173.032 207.901,173.446 207.319 C 173.861 206.736,174.962 205.260,175.895 204.038 C 176.827 202.816,177.750 201.590,177.946 201.314 C 178.175 200.990,178.143 200.463,177.855 199.830 L 177.407 198.848 142.094 198.870 C 122.671 198.882,106.495 198.887,106.147 198.881 C 104.344 198.849,104.331 198.735,104.331 181.941 C 104.331 164.938,104.400 163.946,105.609 163.457 C 106.728 163.005,228.664 163.005,229.379 163.457 M365.866 173.279 L 365.616 174.846 365.105 173.632 C 364.468 172.117,364.454 171.110,365.066 170.896 C 365.817 170.634,366.137 171.586,365.866 173.279 M365.749 190.301 C 365.501 191.486,365.478 191.499,365.044 190.703 C 364.475 189.660,364.478 188.992,365.058 187.720 L 365.521 186.704 365.764 187.890 C 365.897 188.543,365.891 189.628,365.749 190.301 M360.075 198.682 C 360.075 199.006,359.735 199.247,359.276 199.247 C 358.608 199.247,358.554 199.154,358.945 198.682 C 359.203 198.371,359.563 198.117,359.745 198.117 C 359.927 198.117,360.075 198.371,360.075 198.682 M358.380 200.565 C 358.380 201.397,357.205 201.801,356.586 201.181 C 356.309 200.904,356.339 200.606,356.686 200.188 C 357.341 199.398,358.380 199.629,358.380 200.565 M355.203 202.100 C 355.842 202.871,355.129 203.376,353.390 203.384 C 352.026 203.390,351.708 202.564,352.825 201.913 C 353.783 201.356,354.641 201.423,355.203 202.100 M350.633 204.094 C 351.197 205.148,350.834 205.273,347.207 205.273 C 343.487 205.273,342.952 204.828,345.669 203.992 C 348.268 203.193,350.171 203.232,350.633 204.094 M394.727 215.881 C 393.588 216.930,392.147 218.032,391.525 218.328 C 390.904 218.625,389.294 219.526,387.947 220.332 C 386.601 221.138,384.598 222.007,383.497 222.263 C 380.231 223.024,381.026 224.943,384.804 225.415 C 385.912 225.553,387.046 225.895,387.326 226.174 C 387.605 226.454,388.580 226.881,389.491 227.124 C 390.403 227.367,391.403 227.787,391.714 228.058 C 392.024 228.329,392.872 228.817,393.597 229.142 C 394.322 229.468,395.379 230.109,395.945 230.567 C 397.394 231.739,397.366 231.891,397.441 222.587 C 397.517 213.068,397.589 213.245,394.727 215.881 M397.222 215.866 C 397.093 216.514,396.987 217.288,396.987 217.586 C 396.987 218.394,394.955 218.065,394.797 217.232 C 394.720 216.827,394.904 216.573,395.272 216.573 C 395.603 216.573,396.066 216.149,396.302 215.631 C 396.909 214.299,397.505 214.452,397.222 215.866 M387.342 223.571 C 387.784 224.723,387.550 224.859,385.122 224.859 C 382.716 224.859,382.411 224.718,382.962 223.867 C 383.578 222.917,387.002 222.686,387.342 223.571 M390.584 226.177 C 390.983 226.658,390.881 226.742,389.888 226.742 C 389.008 226.742,388.777 226.604,388.941 226.177 C 389.060 225.866,389.373 225.612,389.636 225.612 C 389.900 225.612,390.326 225.866,390.584 226.177 M396.045 228.249 C 396.173 228.456,395.919 228.625,395.480 228.625 C 395.041 228.625,394.787 228.456,394.915 228.249 C 395.043 228.041,395.298 227.872,395.480 227.872 C 395.663 227.872,395.917 228.041,396.045 228.249 M298.260 242.868 C 297.702 244.336,297.837 297.395,298.399 297.788 C 299.359 298.458,351.516 297.818,352.575 297.124 C 353.091 296.785,354.469 296.310,355.636 296.068 C 356.803 295.825,357.960 295.383,358.208 295.085 C 358.455 294.786,359.310 294.347,360.107 294.108 C 360.903 293.869,361.930 293.275,362.387 292.788 C 362.845 292.301,363.430 291.902,363.687 291.902 C 364.493 291.902,369.816 285.859,370.282 284.415 C 370.524 283.665,371.027 282.758,371.401 282.400 C 371.779 282.036,372.173 280.954,372.292 279.951 C 372.409 278.963,372.709 277.222,372.959 276.083 C 373.542 273.425,373.542 268.195,372.959 265.537 C 372.709 264.397,372.410 262.662,372.294 261.681 C 372.178 260.699,371.833 259.646,371.527 259.340 C 371.221 259.034,370.705 258.147,370.380 257.370 C 369.409 255.045,362.791 247.462,361.731 247.459 C 361.502 247.458,360.881 247.055,360.351 246.564 C 359.821 246.073,358.737 245.549,357.942 245.401 C 357.147 245.253,356.218 244.833,355.877 244.469 C 355.434 243.996,354.429 243.743,352.368 243.587 C 350.764 243.466,349.089 243.113,348.600 242.792 C 347.837 242.292,344.451 242.201,323.156 242.106 L 298.591 241.996 298.260 242.868 M300.196 269.562 C 300.176 291.863,300.247 295.248,300.737 295.655 C 301.176 296.019,306.753 296.094,326.074 295.996 C 350.569 295.871,350.847 295.878,350.847 296.616 C 350.847 297.353,350.491 297.365,324.765 297.460 L 298.682 297.557 298.682 270.498 C 298.682 255.616,298.799 243.323,298.942 243.180 C 300.134 241.988,300.219 243.773,300.196 269.562 M354.732 244.727 C 354.570 245.575,353.042 245.796,352.229 245.089 C 351.883 244.788,351.347 244.449,351.036 244.335 C 350.725 244.221,351.458 244.114,352.664 244.098 C 354.558 244.072,354.840 244.158,354.732 244.727 M359.322 246.679 C 359.322 247.695,357.980 248.029,356.855 247.292 C 355.479 246.390,355.732 245.951,357.627 245.951 C 359.051 245.951,359.322 246.067,359.322 246.679 M362.209 248.425 C 362.333 248.749,362.261 249.189,362.049 249.401 C 361.545 249.905,360.075 249.149,360.075 248.386 C 360.075 247.633,361.918 247.666,362.209 248.425 M363.842 250.517 C 363.842 251.196,363.754 251.243,363.259 250.833 C 362.794 250.446,362.775 250.287,363.165 250.039 C 363.837 249.613,363.842 249.616,363.842 250.517 M366.015 252.425 C 365.783 253.122,365.088 253.201,364.842 252.558 C 364.685 252.151,364.850 251.977,365.392 251.977 C 365.821 251.977,366.098 252.176,366.015 252.425 M369.868 258.369 C 369.868 259.181,369.722 259.430,369.332 259.281 C 368.212 258.851,368.206 257.250,369.325 257.250 C 369.676 257.250,369.868 257.646,369.868 258.369 M371.802 261.111 C 372.033 262.531,371.591 267.314,371.306 266.478 C 370.137 263.054,369.953 261.817,370.495 261.042 C 371.202 260.033,371.630 260.056,371.802 261.111 M371.809 280.688 C 371.689 281.565,371.564 281.659,370.957 281.334 C 370.039 280.843,370.020 278.939,370.904 276.116 L 371.563 274.011 371.757 276.836 C 371.863 278.390,371.887 280.123,371.809 280.688 M369.798 283.333 C 369.723 284.112,369.476 284.557,369.120 284.557 C 368.398 284.557,368.167 283.362,368.753 282.656 C 369.499 281.757,369.923 282.032,369.798 283.333 M360.377 292.354 C 361.141 293.119,360.887 293.409,359.452 293.409 C 358.099 293.409,358.087 293.396,358.757 292.655 C 359.550 291.780,359.763 291.740,360.377 292.354 M356.846 294.414 C 357.149 295.204,356.453 295.663,354.991 295.636 C 353.261 295.605,352.348 295.164,352.977 294.666 C 354.265 293.643,356.495 293.499,356.846 294.414 M103.107 323.233 C 103.046 327.442,102.997 324.105,102.997 315.819 C 102.996 307.533,103.046 304.089,103.107 308.167 C 103.168 312.245,103.168 319.024,103.107 323.233 M232.674 324.765 C 232.614 329.167,232.564 325.565,232.564 316.761 C 232.564 307.957,232.614 304.355,232.674 308.757 C 232.734 313.159,232.734 320.363,232.674 324.765 M397.185 323.446 C 396.862 324.734,396.927 324.683,395.935 324.423 C 394.439 324.032,394.915 322.411,396.525 322.411 C 397.340 322.411,397.416 322.528,397.185 323.446 M394.657 324.953 C 394.466 325.952,392.844 326.060,392.844 325.073 C 392.844 324.487,393.084 324.294,393.813 324.294 C 394.533 324.294,394.750 324.463,394.657 324.953 M392.004 326.860 C 392.206 327.466,391.166 327.817,390.018 327.529 C 388.770 327.216,388.821 326.642,390.113 326.450 C 391.477 326.247,391.825 326.322,392.004 326.860 M388.308 329.021 C 387.742 329.703,385.637 329.621,385.403 328.908 C 385.294 328.576,385.771 328.437,387.020 328.437 C 388.579 328.437,388.734 328.507,388.308 329.021 M383.084 331.102 C 382.034 331.976,381.044 331.919,380.862 330.975 C 380.757 330.433,381.017 330.322,382.364 330.333 L 383.992 330.345 383.084 331.102 M378.908 332.567 C 378.908 333.293,377.447 333.761,376.597 333.306 C 375.954 332.962,375.898 332.809,376.314 332.545 C 377.020 332.099,378.908 332.114,378.908 332.567 M371.469 334.729 C 371.003 334.819,370.240 334.819,369.774 334.729 C 369.308 334.639,369.689 334.566,370.621 334.566 C 371.554 334.566,371.935 334.639,371.469 334.729 " stroke="none" fill="#343333" fill-rule="evenodd"></path><path id="path3" d="M2.637 188.324 L 2.637 376.648 3.578 376.648 L 4.520 376.648 4.520 188.324 L 4.520 0.000 3.578 0.000 L 2.637 0.000 2.637 188.324 M279.973 116.667 C 293.817 116.721,316.359 116.721,330.067 116.667 C 343.775 116.612,332.448 116.567,304.896 116.567 C 277.345 116.567,266.129 116.612,279.973 116.667 M364.218 117.954 C 363.077 118.430,363.933 118.952,365.913 118.988 C 367.750 119.022,368.264 118.438,366.835 117.940 C 365.411 117.444,365.444 117.444,364.218 117.954 M251.102 119.040 C 250.126 120.434,250.126 332.673,251.102 334.067 C 251.701 334.922,251.749 334.932,252.018 334.245 C 252.173 333.847,252.301 285.386,252.301 226.554 C 252.301 167.721,252.173 119.260,252.018 118.862 C 251.749 118.176,251.701 118.185,251.102 119.040 M371.253 119.926 C 370.946 120.724,371.328 120.904,373.321 120.904 C 375.330 120.904,375.652 120.504,374.182 119.834 C 372.880 119.241,371.499 119.284,371.253 119.926 M376.868 121.899 C 376.536 122.763,376.721 122.850,378.586 122.717 L 380.226 122.599 379.021 121.940 C 377.525 121.122,377.168 121.115,376.868 121.899 M381.063 123.898 C 380.879 124.603,381.031 124.670,382.790 124.670 C 384.455 124.670,384.643 124.598,384.167 124.143 C 383.143 123.164,381.294 123.018,381.063 123.898 M385.185 125.675 C 384.650 126.211,384.992 126.497,386.466 126.746 C 388.211 127.041,388.641 126.825,387.955 125.998 C 387.475 125.420,385.652 125.208,385.185 125.675 M388.551 127.529 C 388.230 128.365,388.597 128.814,389.602 128.814 C 390.816 128.814,391.060 128.418,390.338 127.620 C 389.570 126.771,388.856 126.735,388.551 127.529 M392.357 129.802 C 391.798 130.362,392.133 130.697,393.252 130.697 C 394.012 130.697,394.360 130.534,394.258 130.226 C 394.082 129.692,392.762 129.397,392.357 129.802 M394.978 131.325 C 394.402 131.900,394.800 132.505,395.857 132.660 C 396.836 132.804,396.987 132.709,396.987 131.950 C 396.987 131.089,395.635 130.668,394.978 131.325 M298.682 181.356 L 298.682 207.156 319.586 207.156 C 332.762 207.156,340.490 207.022,340.490 206.793 C 340.490 205.574,338.872 205.462,319.492 205.343 L 300.188 205.224 300.188 181.542 C 300.188 165.438,300.315 157.782,300.583 157.616 C 300.800 157.482,311.197 157.394,323.688 157.421 C 344.190 157.466,346.447 157.411,346.903 156.861 C 347.909 155.649,346.364 155.567,322.505 155.561 L 298.682 155.556 298.682 181.356 M350.346 157.709 C 349.505 157.869,349.495 157.907,350.122 158.599 C 350.958 159.523,352.405 159.529,352.897 158.610 C 353.242 157.964,352.321 157.272,351.412 157.495 C 351.309 157.521,350.829 157.617,350.346 157.709 M354.569 159.869 C 354.262 160.669,354.724 161.205,355.722 161.205 C 356.744 161.205,357.304 159.872,356.425 159.535 C 355.482 159.173,354.788 159.298,354.569 159.869 M365.066 170.896 C 364.454 171.110,364.468 172.117,365.105 173.632 L 365.616 174.846 365.866 173.279 C 366.137 171.586,365.817 170.634,365.066 170.896 M365.058 187.720 C 364.478 188.992,364.475 189.660,365.044 190.703 C 365.631 191.781,366.147 189.766,365.764 187.890 L 365.521 186.704 365.058 187.720 M358.945 198.682 C 358.554 199.154,358.608 199.247,359.276 199.247 C 359.735 199.247,360.075 199.006,360.075 198.682 C 360.075 198.371,359.927 198.117,359.745 198.117 C 359.563 198.117,359.203 198.371,358.945 198.682 M356.686 200.188 C 356.339 200.606,356.309 200.904,356.586 201.181 C 357.205 201.801,358.380 201.397,358.380 200.565 C 358.380 199.629,357.341 199.398,356.686 200.188 M352.825 201.913 C 351.708 202.564,352.026 203.390,353.390 203.384 C 355.129 203.376,355.842 202.871,355.203 202.100 C 354.641 201.423,353.783 201.356,352.825 201.913 M345.669 203.992 C 342.952 204.828,343.487 205.273,347.207 205.273 C 350.834 205.273,351.197 205.148,350.633 204.094 C 350.171 203.232,348.268 203.193,345.669 203.992 M396.302 215.631 C 396.066 216.149,395.603 216.573,395.272 216.573 C 394.904 216.573,394.720 216.827,394.797 217.232 C 394.955 218.065,396.987 218.394,396.987 217.586 C 396.987 217.288,397.093 216.514,397.222 215.866 C 397.505 214.452,396.909 214.299,396.302 215.631 M383.992 223.251 C 383.258 223.435,382.692 224.007,382.680 224.576 C 382.677 224.732,383.776 224.859,385.122 224.859 C 387.550 224.859,387.784 224.723,387.342 223.571 C 387.115 222.980,385.641 222.839,383.992 223.251 M388.941 226.177 C 388.777 226.604,389.008 226.742,389.888 226.742 C 390.881 226.742,390.983 226.658,390.584 226.177 C 390.326 225.866,389.900 225.612,389.636 225.612 C 389.373 225.612,389.060 225.866,388.941 226.177 M394.915 228.249 C 394.787 228.456,395.041 228.625,395.480 228.625 C 395.919 228.625,396.173 228.456,396.045 228.249 C 395.917 228.041,395.663 227.872,395.480 227.872 C 395.298 227.872,395.043 228.041,394.915 228.249 M298.942 243.180 C 298.799 243.323,298.682 255.616,298.682 270.498 L 298.682 297.557 324.765 297.460 C 350.491 297.365,350.847 297.353,350.847 296.616 C 350.847 295.878,350.569 295.871,326.074 295.996 C 306.753 296.094,301.176 296.019,300.737 295.655 C 300.247 295.248,300.176 291.863,300.196 269.562 C 300.219 243.773,300.134 241.988,298.942 243.180 M351.036 244.335 C 351.347 244.449,351.883 244.788,352.229 245.089 C 353.042 245.796,354.570 245.575,354.732 244.727 C 354.840 244.158,354.558 244.072,352.664 244.098 C 351.458 244.114,350.725 244.221,351.036 244.335 M355.932 246.319 C 355.932 246.984,357.746 247.907,358.550 247.652 C 360.137 247.148,359.487 245.951,357.627 245.951 C 356.695 245.951,355.932 246.117,355.932 246.319 M360.075 248.386 C 360.075 249.149,361.545 249.905,362.049 249.401 C 362.261 249.189,362.333 248.749,362.209 248.425 C 361.918 247.666,360.075 247.633,360.075 248.386 M363.165 250.039 C 362.775 250.287,362.794 250.446,363.259 250.833 C 363.754 251.243,363.842 251.196,363.842 250.517 C 363.842 249.616,363.837 249.613,363.165 250.039 M364.842 252.558 C 365.088 253.201,365.783 253.122,366.015 252.425 C 366.098 252.176,365.821 251.977,365.392 251.977 C 364.850 251.977,364.685 252.151,364.842 252.558 M368.571 257.593 C 368.269 258.081,368.701 259.039,369.332 259.281 C 369.722 259.430,369.868 259.181,369.868 258.369 C 369.868 257.283,369.061 256.801,368.571 257.593 M370.495 261.042 C 370.019 261.723,370.019 262.069,370.499 263.773 C 371.490 267.293,371.556 267.336,371.751 264.595 C 372.048 260.438,371.669 259.366,370.495 261.042 M370.904 276.116 C 370.020 278.939,370.039 280.843,370.957 281.334 C 371.860 281.817,372.032 280.850,371.757 276.836 L 371.563 274.011 370.904 276.116 M368.753 282.656 C 368.167 283.362,368.398 284.557,369.120 284.557 C 369.476 284.557,369.723 284.112,369.798 283.333 C 369.923 282.032,369.499 281.757,368.753 282.656 M358.757 292.655 C 358.087 293.396,358.099 293.409,359.452 293.409 C 360.887 293.409,361.141 293.119,360.377 292.354 C 359.763 291.740,359.550 291.780,358.757 292.655 M354.049 294.054 C 352.074 294.785,352.554 295.592,354.991 295.636 C 356.453 295.663,357.149 295.204,356.846 294.414 C 356.608 293.793,355.232 293.616,354.049 294.054 M102.997 315.819 C 102.997 324.105,103.046 327.442,103.107 323.233 C 103.168 319.024,103.168 312.245,103.107 308.167 C 103.046 304.089,102.996 307.533,102.997 315.819 M232.564 316.761 C 232.564 325.565,232.614 329.167,232.674 324.765 C 232.734 320.363,232.734 313.159,232.674 308.757 C 232.614 304.355,232.564 307.957,232.564 316.761 M395.355 322.662 C 394.813 323.204,395.146 324.217,395.935 324.423 C 396.927 324.683,396.862 324.734,397.185 323.446 C 397.441 322.427,396.144 321.872,395.355 322.662 M392.844 325.073 C 392.844 325.665,393.047 325.824,393.687 325.732 C 394.939 325.554,395.049 324.294,393.813 324.294 C 393.084 324.294,392.844 324.487,392.844 325.073 M390.113 326.450 C 388.821 326.642,388.770 327.216,390.018 327.529 C 391.166 327.817,392.206 327.466,392.004 326.860 C 391.825 326.322,391.477 326.247,390.113 326.450 M385.403 328.908 C 385.637 329.621,387.742 329.703,388.308 329.021 C 388.734 328.507,388.579 328.437,387.020 328.437 C 385.771 328.437,385.294 328.576,385.403 328.908 M380.862 330.975 C 381.044 331.919,382.034 331.976,383.084 331.102 L 383.992 330.345 382.364 330.333 C 381.017 330.322,380.757 330.433,380.862 330.975 M376.314 332.545 C 375.898 332.809,375.954 332.962,376.597 333.306 C 377.447 333.761,378.908 333.293,378.908 332.567 C 378.908 332.114,377.020 332.099,376.314 332.545 M369.774 334.729 C 370.240 334.819,371.003 334.819,371.469 334.729 C 371.935 334.639,371.554 334.566,370.621 334.566 C 369.689 334.566,369.308 334.639,369.774 334.729 " stroke="none" fill="#1b1d1c" fill-rule="evenodd"></path><path id="path4" d="M1.507 188.324 C 1.507 313.622,1.633 376.648,1.883 376.648 C 2.134 376.648,2.260 313.622,2.260 188.324 C 2.260 63.026,2.134 0.000,1.883 0.000 C 1.633 0.000,1.507 63.026,1.507 188.324 M397.363 67.420 C 397.363 104.501,397.261 134.840,397.136 134.840 C 397.011 134.840,395.895 133.992,394.655 132.957 C 393.415 131.921,392.187 131.073,391.924 131.073 C 391.662 131.073,390.990 130.650,390.431 130.132 C 389.872 129.614,389.236 129.190,389.018 129.190 C 388.800 129.190,388.117 128.766,387.502 128.249 C 386.886 127.731,386.175 127.307,385.920 127.307 C 385.665 127.307,384.883 126.883,384.181 126.365 C 383.479 125.847,382.514 125.424,382.036 125.424 C 381.558 125.424,380.816 125.072,380.386 124.643 C 379.957 124.213,378.669 123.617,377.524 123.319 C 376.379 123.021,375.083 122.525,374.643 122.217 C 374.203 121.909,373.415 121.658,372.892 121.659 C 372.368 121.660,370.753 121.253,369.303 120.754 C 367.853 120.255,364.294 119.449,361.394 118.963 L 356.121 118.079 304.896 117.978 C 256.954 117.884,253.642 117.919,253.202 118.521 C 252.505 119.473,252.510 334.018,253.207 334.970 C 253.841 335.837,354.864 335.750,360.452 334.878 C 371.727 333.117,375.821 332.173,379.575 330.468 C 380.667 329.973,381.889 329.567,382.289 329.567 C 382.690 329.567,383.642 329.143,384.405 328.625 C 385.168 328.107,386.075 327.684,386.420 327.684 C 386.765 327.684,387.622 327.260,388.324 326.742 C 389.026 326.224,389.748 325.800,389.929 325.800 C 390.110 325.800,390.813 325.377,391.492 324.859 C 392.171 324.341,392.896 323.917,393.103 323.917 C 393.311 323.917,393.788 323.577,394.164 323.161 C 394.890 322.360,397.006 321.174,397.260 321.428 C 397.342 321.510,397.395 333.969,397.376 349.113 C 397.345 373.585,397.406 376.648,397.917 376.648 C 398.607 376.648,398.809 322.537,398.126 320.740 C 397.685 319.580,396.969 319.507,396.045 320.527 C 395.670 320.942,395.156 321.281,394.903 321.281 C 394.650 321.281,394.216 321.554,393.939 321.888 C 393.662 322.222,392.666 322.893,391.727 323.380 C 389.776 324.390,383.421 327.484,381.733 328.245 C 380.143 328.961,371.528 331.356,369.492 331.648 C 368.559 331.781,366.949 332.138,365.913 332.440 C 362.208 333.522,350.701 333.737,302.072 333.629 L 253.672 333.522 253.672 226.742 L 253.672 119.962 304.332 119.867 C 357.416 119.767,355.515 119.722,364.595 121.292 C 368.748 122.011,375.377 123.903,378.719 125.323 C 382.311 126.850,385.835 128.578,386.343 129.061 C 386.600 129.306,387.405 129.702,388.132 129.942 C 388.859 130.182,389.454 130.531,389.454 130.716 C 389.454 130.902,390.005 131.334,390.678 131.677 C 391.351 132.020,392.750 133.001,393.785 133.858 C 397.279 136.749,396.985 136.619,397.783 135.633 C 398.771 134.414,398.914 0.000,397.928 0.000 C 397.428 0.000,397.363 7.742,397.363 67.420 M298.015 153.542 C 296.451 154.191,296.422 154.700,296.422 181.517 L 296.422 207.139 297.322 207.729 C 298.706 208.635,344.522 208.405,346.554 207.481 C 347.301 207.142,348.656 206.749,349.568 206.608 C 351.791 206.262,353.672 205.659,353.672 205.291 C 353.672 205.126,354.205 204.884,354.856 204.754 C 357.414 204.242,363.381 199.564,365.254 196.602 C 368.490 191.484,369.290 188.341,369.281 180.791 C 369.268 170.835,366.742 165.217,359.699 159.489 C 358.791 158.750,354.032 156.309,353.501 156.309 C 353.233 156.309,352.229 155.961,351.268 155.536 C 347.561 153.897,301.329 152.165,298.015 153.542 M348.656 156.137 C 349.732 156.646,351.037 157.062,351.557 157.062 C 352.731 157.062,357.406 159.375,358.357 160.426 C 358.745 160.855,359.223 161.205,359.421 161.205 C 360.232 161.205,363.933 165.718,365.135 168.173 C 370.532 179.194,368.283 192.919,359.854 200.410 C 359.251 200.946,358.333 201.609,357.815 201.884 C 357.298 202.158,356.704 202.597,356.497 202.859 C 356.290 203.121,355.358 203.533,354.426 203.774 C 353.493 204.016,352.441 204.472,352.087 204.788 C 351.706 205.127,349.887 205.564,347.636 205.857 C 345.543 206.129,343.561 206.575,343.232 206.848 C 342.752 207.247,338.238 207.345,320.376 207.345 L 298.117 207.345 298.020 181.586 C 297.962 166.276,298.064 155.658,298.270 155.409 C 298.520 155.108,305.368 155.022,322.658 155.101 L 346.699 155.211 348.656 156.137 M395.038 214.041 C 394.142 214.721,392.597 215.780,391.604 216.395 C 390.612 217.011,389.256 217.859,388.591 218.281 C 387.926 218.703,386.789 219.282,386.064 219.567 C 385.339 219.853,384.492 220.291,384.181 220.541 C 383.870 220.792,382.734 221.202,381.657 221.454 C 377.081 222.523,378.413 225.352,383.868 226.146 C 384.835 226.287,385.826 226.644,386.071 226.939 C 386.316 227.234,387.083 227.582,387.775 227.711 C 388.467 227.841,389.585 228.354,390.258 228.851 C 390.932 229.348,391.645 229.755,391.842 229.755 C 392.290 229.755,396.119 232.279,396.427 232.777 C 396.827 233.425,397.329 233.175,397.919 232.034 C 398.858 230.218,398.760 214.294,397.805 213.429 C 396.903 212.613,396.930 212.607,395.038 214.041 M397.441 222.587 C 397.366 231.891,397.394 231.739,395.945 230.567 C 395.379 230.109,394.322 229.468,393.597 229.142 C 392.872 228.817,392.024 228.329,391.714 228.058 C 391.403 227.787,390.403 227.367,389.491 227.124 C 388.580 226.881,387.605 226.454,387.326 226.174 C 387.046 225.895,385.912 225.553,384.804 225.415 C 381.026 224.943,380.231 223.024,383.497 222.263 C 384.598 222.007,386.601 221.138,387.947 220.332 C 389.294 219.526,390.904 218.625,391.525 218.328 C 392.147 218.032,393.588 216.930,394.727 215.881 C 397.589 213.245,397.517 213.068,397.441 222.587 M298.209 241.010 C 296.333 241.583,296.422 240.144,296.422 270.081 L 296.422 297.861 297.594 298.848 L 298.767 299.835 320.852 299.699 C 351.776 299.508,355.848 298.899,364.218 293.212 C 368.276 290.454,373.258 283.596,373.258 280.767 C 373.258 280.242,373.547 279.270,373.901 278.607 C 374.984 276.577,375.080 267.087,374.052 263.702 C 373.615 262.265,373.258 260.851,373.258 260.560 C 373.258 257.699,364.675 246.704,362.441 246.704 C 362.240 246.704,361.768 246.365,361.392 245.949 C 361.016 245.534,360.032 245.012,359.206 244.790 C 358.379 244.567,357.468 244.150,357.181 243.864 C 356.632 243.315,354.332 242.567,353.183 242.563 C 352.810 242.562,351.963 242.265,351.300 241.902 C 350.238 241.322,348.724 241.232,338.606 241.149 C 309.901 240.916,298.643 240.877,298.209 241.010 M348.600 242.792 C 349.089 243.113,350.764 243.466,352.368 243.587 C 354.429 243.743,355.434 243.996,355.877 244.469 C 356.218 244.833,357.147 245.253,357.942 245.401 C 358.737 245.549,359.821 246.073,360.351 246.564 C 360.881 247.055,361.502 247.458,361.731 247.459 C 362.791 247.462,369.409 255.045,370.380 257.370 C 370.705 258.147,371.221 259.034,371.527 259.340 C 371.833 259.646,372.178 260.699,372.294 261.681 C 372.410 262.662,372.709 264.397,372.959 265.537 C 373.542 268.195,373.542 273.425,372.959 276.083 C 372.709 277.222,372.409 278.963,372.292 279.951 C 372.173 280.954,371.779 282.036,371.401 282.400 C 371.027 282.758,370.524 283.665,370.282 284.415 C 369.816 285.859,364.493 291.902,363.687 291.902 C 363.430 291.902,362.845 292.301,362.387 292.788 C 361.930 293.275,360.903 293.869,360.107 294.108 C 359.310 294.347,358.455 294.786,358.208 295.085 C 357.960 295.383,356.803 295.825,355.636 296.068 C 354.469 296.310,353.091 296.785,352.575 297.124 C 351.516 297.818,299.359 298.458,298.399 297.788 C 297.837 297.395,297.702 244.336,298.260 242.868 L 298.591 241.996 323.156 242.106 C 344.451 242.201,347.837 242.292,348.600 242.792 " stroke="none" fill="#787878" fill-rule="evenodd"></path></g></svg>